<svg width="161" height="32" viewBox="0 0 161 32" fill="none" xmlns="http://www.w3.org/2000/svg">
<path fill-rule="evenodd" clip-rule="evenodd" d="M4.94479 0.878616H13.6124L13.8086 22.2822C13.8086 22.2822 13.8697 27.4533 10.7734 29.9871C8.37413 31.9491 5.6582 32.0923 3.42762 31.705C1.21425 31.323 0 30.4287 0 30.4287V23.0662C0 23.0662 0.783111 23.7044 1.85967 24.0485C2.9371 24.3917 3.64534 24.6634 4.60229 23.7052C5.09195 23.2154 5.04376 21.6449 5.04376 21.6449L4.94479 0.878616ZM14.1735 21.5466C14.1735 21.5466 12.9661 32 24.8505 32C35.8252 32 35.2297 22.1175 35.2297 21.1524C35.2297 20.1891 35.1325 0.832907 35.1325 0.832907H26.464L26.5139 20.7109C26.5139 20.7109 26.7575 23.8035 24.6525 23.8035C22.5476 23.8035 22.8419 20.9084 22.8419 20.9084L22.6947 0.882926H14.0263L14.1735 21.5466ZM51.8885 9.91594L51.8342 2.11016C51.8342 2.11016 48.1846 0.240419 44.3155 0.240419C39.0472 0.240419 36.8243 4.14374 36.8243 4.14374C36.8243 4.14374 34.8063 6.96042 35.5042 10.6913C35.9663 13.1587 36.8889 14.4989 38.8897 16.4738C39.8019 17.375 41.5436 18.7868 42.0058 19.2499C42.4679 19.7131 44.0685 20.7117 43.8138 22.3728C43.6486 23.4577 43.0453 24.2071 41.0058 24.1468C38.4284 24.0692 35.4276 21.563 35.4276 21.563L35.4664 29.5438C35.4664 29.5438 38.8905 32.0414 42.5445 31.9724C46.6218 31.8948 48.5839 30.546 49.9307 29.4662C51.9444 27.8526 53.508 24.3779 52.9702 20.5608C52.4315 16.7437 49.0082 14.2384 48.0461 13.4286C47.0839 12.6188 44.93 11.0388 44.5453 10.1514C44.1606 9.26481 44.8912 7.83837 45.6993 7.7228C46.5074 7.60724 47.849 6.94748 51.8885 9.91594ZM52.2215 8.54814H57.3212V31.3023H65.9449V8.54814H70.7959V0.866542H52.2215V8.54814ZM136.855 8.54814H141.955V31.3023H150.579V8.54814H155.43V0.866542H136.855V8.54814ZM76.7252 31.3584H86.1879C88.1508 31.3584 98.3063 30.897 98.3063 15.5786C98.3063 0.607814 87.1121 0.897586 87.1121 0.897586H76.7828L76.7252 31.3584ZM85.496 8.98798C85.496 8.98798 86.7094 8.87241 87.2275 9.16218C87.7481 9.45109 89.3634 10.3756 89.3634 16.4445C89.3634 22.5151 88.0355 23.268 87.1698 23.7294C86.3041 24.1908 85.4383 23.9605 85.4383 23.9605L85.496 8.98798ZM110.195 0.0291293C110.195 0.0291293 98.5955 -0.375346 98.5955 15.6942C98.5955 33.0927 110.195 31.9353 110.195 31.9353C110.195 31.9353 122.197 33.4972 122.197 16.0409C122.197 -1.41543 110.195 0.0291293 110.195 0.0291293ZM110.252 7.54342C111.06 7.54342 113.022 6.96646 113.022 16.0417C113.022 24.9419 110.714 24.1321 110.309 24.1321C109.906 24.1321 107.483 24.7117 107.483 16.0995C107.482 7.2545 109.444 7.54342 110.252 7.54342ZM127.564 31.3006H136.277V0.896724H127.448L127.564 31.3006ZM151.285 27.0833C151.285 29.4886 153.26 31.9612 156.109 31.9612C158.601 31.9612 161 30.1855 161 27.0609C161 24.8126 159.116 22.227 156.109 22.227C153.865 22.227 151.285 24.0476 151.285 27.0833Z" fill="white"/>
</svg>
