<svg width="164" height="164" viewBox="0 0 164 164" fill="none" xmlns="http://www.w3.org/2000/svg">
<path d="M121.881 135.967L130.719 138.194L132.125 137.008L127.355 131.351L128.501 130.384L138.171 141.851L137.025 142.818L133.028 138.078L131.713 139.187L131.78 147.24L130.358 148.439L130.253 139.659L120.459 137.166L121.881 135.967Z" fill="white"/>
<path d="M112.212 143.572L111.502 142.366L119.55 137.627L127.162 150.553L119.389 155.129L118.679 153.922L125.159 150.107L122.723 145.971L116.519 149.624L115.808 148.418L122.013 144.765L118.968 139.595L112.212 143.572Z" fill="white"/>
<path d="M101.777 147.667L101.276 146.36L109.995 143.013L115.373 157.016L106.952 160.248L106.45 158.941L113.471 156.246L111.75 151.765L105.028 154.345L104.526 153.039L111.248 150.458L109.097 144.857L101.777 147.667Z" fill="white"/>
<path d="M95.8755 153.451L99.384 152.739L98.2286 147.056L99.6987 146.757L102.687 161.457L97.7277 162.463C96.1466 162.784 94.8203 162.618 93.7487 161.965C92.664 161.314 91.9876 160.329 91.7193 159.009C91.4458 157.664 91.6748 156.481 92.4064 155.462C93.1381 154.443 94.2944 153.772 95.8755 153.451ZM97.3508 161.111L100.938 160.383L99.6628 154.111L96.1544 154.823C94.9522 155.067 94.1234 155.542 93.668 156.246C93.2022 156.967 93.0622 157.784 93.2481 158.699C93.4287 159.588 93.8663 160.267 94.5607 160.739C95.2448 161.226 96.1748 161.35 97.3508 161.111Z" fill="white"/>
<path d="M67.8307 155.525C68.0141 153.333 68.9054 151.554 70.5047 150.19C72.1041 148.826 74.0198 148.237 76.2519 148.424C78.4708 148.611 80.262 149.51 81.6256 151.123C82.976 152.735 83.5594 154.637 83.376 156.83C83.1915 159.035 82.2996 160.82 80.7002 162.185C79.0876 163.548 77.1719 164.136 74.953 163.95C72.7209 163.763 70.9297 162.863 69.5794 161.251C68.229 159.639 67.6461 157.731 67.8307 155.525ZM81.8215 156.699C81.9737 154.879 81.5153 153.322 80.4461 152.028C79.3769 150.734 77.9389 150.011 76.1319 149.859C74.3249 149.708 72.7868 150.181 71.5175 151.278C70.2483 152.376 69.5375 153.835 69.3852 155.655C69.2318 157.489 69.6897 159.053 70.7589 160.347C71.828 161.641 73.2661 162.364 75.0731 162.515C76.8801 162.667 78.4182 162.194 79.6875 161.096C80.9567 159.999 81.6681 158.533 81.8215 156.699Z" fill="white"/>
<path d="M66.0769 147.202L67.5083 147.651L63.0274 161.966L59.8401 160.967L57.8337 146.087L56.9748 145.818L52.9121 158.797L51.4807 158.349L55.9616 144.034L59.1489 145.032L61.1553 159.912L62.0142 160.181L66.0769 147.202Z" fill="white"/>
<path d="M45.1117 137.895L49.9578 141.081L49.1447 142.318L44.2151 139.076C43.1568 138.38 42.1973 138.117 41.3368 138.285C40.4651 138.446 39.7803 138.905 39.2822 139.662C38.1688 141.356 38.6705 142.899 40.7872 144.29L42.2911 145.28C43.2603 145.917 43.8793 146.723 44.1481 147.698C44.4057 148.665 44.2452 149.589 43.6665 150.469C43.0659 151.382 42.2613 151.914 41.2528 152.065C40.2257 152.219 39.2053 151.963 38.1916 151.297L33.1115 147.956L33.9246 146.719L39.0714 150.104C39.7399 150.544 40.3695 150.702 40.9604 150.58C41.544 150.469 42.0115 150.146 42.3631 149.612C42.6927 149.11 42.7892 148.575 42.6524 148.007C42.5157 147.438 42.1131 146.934 41.4446 146.494L39.9741 145.527C38.4813 144.546 37.5961 143.453 37.3185 142.249C37.0408 141.045 37.2573 139.903 37.9678 138.822C38.7076 137.697 39.7072 137.014 40.9666 136.773C42.2149 136.524 43.5966 136.898 45.1117 137.895Z" fill="white"/>
<path d="M25.8659 128.174C27.4339 127.323 29.0435 126.99 30.6949 127.175C32.3463 127.36 33.8038 128.075 35.0674 129.319C36.6445 130.872 37.4364 132.7 37.4432 134.802C37.45 136.905 36.6817 138.74 35.1381 140.308C33.5852 141.885 31.7623 142.691 29.6694 142.726C27.5671 142.751 25.7227 141.983 24.1361 140.421C22.8915 139.195 22.1497 137.763 21.9108 136.124C21.653 134.486 21.9283 132.895 22.7367 131.352L23.8767 132.475C23.3487 133.695 23.1884 134.912 23.3958 136.127C23.5938 137.351 24.1773 138.441 25.1464 139.395C26.429 140.658 27.9093 141.273 29.5873 141.241C31.2558 141.2 32.7355 140.524 34.0265 139.213C35.3081 137.911 35.9567 136.426 35.9721 134.757C35.978 133.079 35.3396 131.608 34.057 130.345C33.069 129.372 31.9473 128.801 30.692 128.632C29.4273 128.453 28.1891 128.665 26.9775 129.269L25.8659 128.174Z" fill="white"/>
<path d="M21.156 122.254L23.2801 125.405L28.2555 122.051L29.094 123.295L16.6554 131.679L13.704 127.301C12.8096 125.974 12.4536 124.694 12.6359 123.462C12.7997 122.226 13.4289 121.239 14.5235 120.502C15.3306 119.958 16.1798 119.691 17.0711 119.701C17.9625 119.711 18.8072 120.01 19.6053 120.598L23.2806 114.672L24.1973 116.032L20.7091 121.663C20.9101 121.913 21.0591 122.11 21.156 122.254ZM14.809 126.435L16.9779 129.652L22.1192 126.187L19.995 123.036C19.3093 122.019 18.5593 121.431 17.7449 121.273C16.9304 121.114 16.1473 121.288 15.3955 121.795C14.6657 122.287 14.2216 122.94 14.063 123.754C13.897 124.558 14.1457 125.451 14.809 126.435Z" fill="white"/>
<path d="M10.1541 102.965C12.1898 102.131 14.1793 102.115 16.1226 102.918C18.0658 103.722 19.4623 105.159 20.3121 107.232C21.1567 109.292 21.1714 111.296 20.3561 113.244C19.5357 115.18 18.1076 116.565 16.0719 117.399C14.0238 118.238 12.0281 118.256 10.0849 117.453C8.13656 116.637 6.74006 115.2 5.89538 113.139C5.04564 111.067 5.03097 109.063 5.85137 107.127C6.67176 105.191 8.106 103.804 10.1541 102.965ZM15.4801 115.955C17.1704 115.263 18.3482 114.146 19.0135 112.606C19.6787 111.065 19.6675 109.456 18.9796 107.778C18.2917 106.1 17.17 104.946 15.6145 104.315C14.059 103.685 12.4361 103.716 10.7458 104.408C9.04323 105.106 7.85928 106.225 7.19398 107.766C6.52868 109.306 6.53998 110.916 7.22786 112.593C7.91574 114.271 9.03743 115.425 10.5929 116.056C12.1484 116.687 13.7775 116.653 15.4801 115.955Z" fill="white"/>
<path d="M14.4248 92.7073L15.7947 92.4188L17.0742 98.4853L2.39629 101.577L2.08674 100.109L15.3947 97.3062L14.4248 92.7073Z" fill="white"/>
<path d="M13.6226 84.0034L15.0181 83.8917L15.5142 90.0718L0.562013 91.268L0.441977 89.7728L13.9987 88.6883L13.6226 84.0034Z" fill="white"/>
<path d="M15.1133 80.1077L15.0809 81.6074L0.0844727 81.2782L0.116956 79.7786L15.1133 80.1077Z" fill="white"/>
<path d="M15.2826 75.2359L15.0327 76.715L0.242923 74.2127L0.799206 70.9194L15.2679 66.9169L15.4178 66.0295L2.00837 63.7608L2.2582 62.2817L17.048 64.784L16.4917 68.0773L2.02303 72.0798L1.87313 72.9672L15.2826 75.2359Z" fill="white"/>
<path d="M16.4017 46.7813C18.3139 47.5653 19.6643 48.9116 20.4529 50.82C21.2292 52.7234 21.2154 54.656 20.4116 56.6177C19.5724 58.6658 18.1813 60.0913 16.2385 60.8943C14.2956 61.6973 12.3064 61.6815 10.2708 60.847C8.22293 60.0073 6.78365 58.6319 5.95298 56.7206C5.12736 54.7969 5.13163 52.8172 5.96577 50.7815C6.62298 49.1776 7.67204 47.9361 9.11295 47.057C10.5539 46.1779 12.1327 45.8237 13.8495 45.9944L13.2505 47.4564C11.9385 47.4229 10.7462 47.7482 9.67331 48.4324C8.60552 49.1042 7.8138 50.0693 7.29814 51.3278C6.62071 52.981 6.61977 54.5658 7.2953 56.082C7.97084 57.5983 9.15984 58.7054 10.8623 59.4034C12.5524 60.0964 14.1726 60.1338 15.7227 59.5156C17.2779 58.8851 18.3967 57.737 19.0792 56.0714C19.6808 54.6032 19.7462 53.1602 19.2753 51.7422C18.7921 50.3192 17.8889 49.2356 16.5656 48.4913L14.6774 53.0995L13.382 52.5684L15.8465 46.5537L16.4017 46.7813Z" fill="white"/>
<path d="M24.5817 39.5325L23.6658 40.7953L21.5613 39.2686L22.4772 38.0058L24.5817 39.5325Z" fill="white"/>
<path d="M40.416 29.4702L31.514 27.5159L30.1445 28.7448L35.087 34.2522L33.9706 35.254L23.952 24.0904L25.0684 23.0885L29.2095 27.7029L30.4896 26.5541L30.1741 18.5069L31.5584 17.2646L31.9338 26.0374L41.8003 28.2279L40.416 29.4702Z" fill="white"/>
<path d="M49.845 21.5629L50.5918 22.7471L42.6909 27.7283L34.6896 15.0406L42.3198 10.23L43.0666 11.4142L36.7053 15.4248L39.2657 19.4849L45.3563 15.645L46.1031 16.8292L40.0125 20.6691L43.213 25.7441L49.845 21.5629Z" fill="white"/>
<path d="M60.2309 17.1097L60.7717 18.401L52.1558 22.0069L46.362 8.17099L54.6827 4.68868L55.2235 5.98003L48.2865 8.88325L50.1405 13.3107L56.7823 10.5311L57.323 11.8224L50.6812 14.6021L52.9987 20.1364L60.2309 17.1097Z" fill="white"/>
<path d="M65.7653 11.1931L62.2792 12.008L63.6008 17.6554L62.1402 17.9968L58.7223 3.3914L63.6495 2.23969C65.2204 1.87248 66.5511 1.99962 67.6414 2.6211C68.7447 3.23955 69.4497 4.20439 69.7566 5.51563C70.0695 6.85284 69.8753 8.04159 69.1739 9.08187C68.4724 10.1222 67.3362 10.8259 65.7653 11.1931ZM64.0658 3.5801L60.5019 4.41316L61.9602 10.6448L65.4463 9.82995C66.6407 9.55075 67.4552 9.05227 67.8898 8.33453C68.3343 7.60076 68.4502 6.77949 68.2375 5.87071C68.0309 4.98789 67.5736 4.32114 66.8657 3.87046C66.1676 3.40375 65.2343 3.30697 64.0658 3.5801Z" fill="white"/>
<path d="M93.7127 8.23149C93.5932 10.4282 92.7539 12.2318 91.195 13.642C89.6361 15.0523 87.7383 15.6963 85.5016 15.5739C83.2783 15.4523 81.4616 14.6051 80.0517 13.0324C78.655 11.4604 78.0165 9.57608 78.136 7.37933C78.2563 5.16927 79.0959 3.3591 80.6548 1.94882C82.2271 0.539263 84.1249 -0.104698 86.3482 0.0169345C88.5849 0.139295 90.4015 0.986462 91.7982 2.55844C93.1948 4.13041 93.833 6.02143 93.7127 8.23149ZM79.6937 7.46455C79.5944 9.28852 80.098 10.8317 81.2044 12.094C82.3107 13.3563 83.7692 14.037 85.5799 14.136C87.3905 14.2351 88.9142 13.7176 90.151 12.5834C91.3878 11.4493 92.0558 9.97024 92.1551 8.14627C92.2551 6.30899 91.7519 4.75919 90.6455 3.49687C89.5391 2.23455 88.0806 1.55386 86.27 1.45481C84.4594 1.35575 82.9357 1.87329 81.6989 3.00743C80.4621 4.14156 79.7937 5.62727 79.6937 7.46455Z" fill="white"/>
<path d="M95.5626 16.4003L94.1186 15.9943L98.1745 1.55309L101.39 2.45698L103.835 17.2716L104.702 17.5151L108.379 4.42174L109.823 4.82768L105.767 19.2689L102.552 18.365L100.106 3.55045L99.2399 3.30688L95.5626 16.4003Z" fill="white"/>
<path d="M117.091 25.1314L112.15 22.0937L112.925 20.8329L117.951 23.9228C119.03 24.5862 119.997 24.8208 120.852 24.6264C121.719 24.4391 122.389 23.9592 122.864 23.1868C123.925 21.4601 123.377 19.9334 121.218 18.6067L119.685 17.6639C118.697 17.0564 118.054 16.2697 117.755 15.3037C117.468 14.3446 117.601 13.4164 118.152 12.519C118.725 11.5876 119.513 11.0312 120.516 10.8499C121.538 10.6642 122.566 10.8891 123.599 11.5246L128.779 14.7088L128.004 15.9697L122.756 12.7436C122.075 12.3246 121.44 12.1851 120.854 12.3252C120.274 12.4538 119.816 12.7908 119.481 13.3361C119.167 13.8472 119.087 14.3849 119.241 14.9492C119.395 15.5134 119.813 16.005 120.494 16.424L121.993 17.3458C123.515 18.2815 124.434 19.3468 124.748 20.5416C125.062 21.7365 124.88 22.8849 124.203 23.9867C123.498 25.134 122.52 25.8473 121.268 26.1266C120.028 26.4128 118.636 26.0811 117.091 25.1314Z" fill="white"/>
<path d="M136.428 34.0622C134.887 34.9615 133.288 35.344 131.632 35.2098C129.975 35.0756 128.497 34.4062 127.195 33.2016C125.571 31.698 124.723 29.8956 124.651 27.7943C124.58 25.6931 125.291 23.8352 126.785 22.2206C128.289 20.5963 130.086 19.7344 132.177 19.6348C134.277 19.5443 136.145 20.2553 137.779 21.7679C139.06 22.9544 139.846 24.3629 140.135 25.9935C140.444 27.6233 140.218 29.2219 139.457 30.7892L138.283 29.7023C138.773 28.4662 138.896 27.2443 138.651 26.0366C138.415 24.8192 137.798 23.7485 136.8 22.8246C135.479 21.6019 133.981 21.0323 132.305 21.1159C130.638 21.2085 129.18 21.93 127.93 23.2804C126.689 24.6209 126.087 26.1255 126.123 27.7941C126.169 29.4718 126.852 30.922 128.173 32.1448C129.191 33.0868 130.33 33.6231 131.59 33.7537C132.859 33.8934 134.09 33.643 135.283 33.0025L136.428 34.0622Z" fill="white"/>
<path d="M141.412 39.8687L139.193 36.7843L134.322 40.2884L133.446 39.0709L145.622 30.3106L148.706 34.5963C149.641 35.895 150.036 37.1631 149.892 38.4004C149.766 39.6408 149.167 40.6464 148.095 41.4173C147.305 41.9857 146.465 42.2785 145.573 42.2955C144.682 42.3125 143.829 42.0396 143.013 41.4767L139.521 47.5124L138.563 46.1813L141.877 40.446C141.669 40.2018 141.514 40.0094 141.412 39.8687ZM147.628 35.4951L145.362 32.3458L140.329 35.9667L142.549 39.0511C143.265 40.0468 144.033 40.6114 144.852 40.745C145.671 40.8785 146.448 40.6806 147.184 40.1511C147.899 39.6371 148.323 38.9707 148.456 38.1519C148.597 37.3439 148.322 36.4583 147.628 35.4951Z" fill="white"/>
<path d="M153.043 58.796C151.033 59.6907 149.045 59.7657 147.079 59.0211C145.112 58.2765 143.673 56.8811 142.762 54.8349C141.856 52.8008 141.781 50.7981 142.538 48.8266C143.3 46.8673 144.686 45.4403 146.696 44.5456C148.718 43.6454 150.712 43.5677 152.679 44.3123C154.65 45.0691 156.089 46.4645 156.995 48.4985C157.907 50.5447 157.981 52.5475 157.219 54.5068C156.457 56.4661 155.065 57.8958 153.043 58.796ZM147.331 45.9706C145.662 46.7135 144.518 47.8649 143.899 49.4247C143.28 50.9846 143.34 52.5928 144.077 54.2492C144.815 55.9057 145.971 57.0258 147.545 57.6096C149.118 58.1934 150.74 58.1138 152.408 57.3709C154.089 56.6226 155.239 55.4685 155.858 53.9086C156.477 52.3488 156.418 50.7406 155.68 49.0842C154.942 47.4277 153.786 46.3076 152.213 45.7238C150.639 45.14 149.012 45.2223 147.331 45.9706Z" fill="white"/>
<path d="M149.161 69.2967L147.8 69.6254L146.343 63.5991L160.924 60.0776L161.276 61.5356L148.056 64.7284L149.161 69.2967Z" fill="white"/>
<path d="M150.244 78.0339L148.852 78.1861L148.177 72.023L163.088 70.392L163.251 71.8831L149.732 73.3619L150.244 78.0339Z" fill="white"/>
<path d="M148.88 81.7471L148.869 80.2472L163.868 80.1403L163.88 81.6403L148.88 81.7471Z" fill="white"/>
<path d="M148.88 86.7624L149.087 85.2767L163.943 87.3459L163.484 90.6541L149.138 95.0774L149.014 95.9689L162.484 97.845L162.278 99.3307L147.421 97.2615L147.881 93.9533L162.226 89.53L162.35 88.6385L148.88 86.7624Z" fill="white"/>
<path d="M148.63 115.289C146.695 114.563 145.305 113.257 144.46 111.373C143.627 109.494 143.583 107.562 144.328 105.577C145.106 103.505 146.454 102.038 148.372 101.178C150.29 100.317 152.279 100.273 154.338 101.047C156.41 101.825 157.89 103.157 158.777 105.043C159.66 106.941 159.715 108.92 158.942 110.979C158.333 112.602 157.321 113.875 155.907 114.796C154.493 115.718 152.926 116.119 151.204 116L151.76 114.52C153.072 114.515 154.254 114.154 155.306 113.438C156.353 112.735 157.116 111.746 157.594 110.473C158.222 108.8 158.175 107.216 157.455 105.721C156.734 104.225 155.513 103.154 153.79 102.507C152.08 101.865 150.46 101.876 148.929 102.54C147.393 103.217 146.309 104.398 145.676 106.083C145.119 107.568 145.097 109.013 145.61 110.416C146.135 111.824 147.07 112.88 148.415 113.585L150.165 108.922L151.476 109.415L149.192 115.5L148.63 115.289Z" fill="white"/>
<path d="M141.53 127.033L142.412 125.746L144.557 127.215L143.675 128.502L141.53 127.033Z" fill="white"/>
<path d="M104.745 49.79L104.745 49.79C104.969 49.962 105.101 50.1 105.194 50.2422C105.285 50.3806 105.356 50.5494 105.42 50.8064C105.42 50.8106 105.421 50.8163 105.422 50.8239C105.424 50.8527 105.427 50.8947 105.43 50.9514C105.435 51.0642 105.44 51.2217 105.446 51.4207C105.456 51.818 105.464 52.3699 105.471 53.0371C105.484 54.3709 105.49 56.1589 105.484 58.0787L105.463 64.9023L105.177 65.2922L105.177 65.2922C105.179 65.2892 105.179 65.2897 105.174 65.2944C105.167 65.3028 105.147 65.3247 105.108 65.3648C105.056 65.4191 104.983 65.4918 104.89 65.5828C104.704 65.7645 104.445 66.0113 104.123 66.315C103.478 66.9219 102.586 67.7496 101.527 68.7239C99.4098 70.6722 96.6322 73.2029 93.8552 75.7174C91.0782 78.232 88.3027 80.7296 86.1897 82.6118C85.133 83.5531 84.2431 84.3394 83.6019 84.8967C83.281 85.1756 83.0244 85.3954 82.8412 85.548C82.7492 85.6246 82.6788 85.6817 82.6294 85.72C82.6154 85.7308 82.6043 85.7392 82.5957 85.7456C82.1431 85.926 81.7189 85.8996 81.2623 85.6504C81.2617 85.6495 81.2428 85.6364 81.1961 85.5994C81.1406 85.5554 81.0645 85.4928 80.9677 85.4114C80.7748 85.2491 80.5092 85.0199 80.1802 84.7321C79.5227 84.1571 78.6189 83.3544 77.551 82.3988C75.4156 80.4879 72.6281 77.9692 69.8516 75.4452C67.075 72.9211 64.3102 70.3926 62.2199 68.4621C61.1746 67.4967 60.299 66.6819 59.6754 66.0923C59.3633 65.7972 59.1161 65.5603 58.9429 65.3898C58.856 65.3043 58.7903 65.238 58.7453 65.1907C58.7318 65.1765 58.7211 65.1651 58.7129 65.1562C58.7102 65.1531 58.7077 65.1504 58.7055 65.1479C58.665 65.076 58.6112 64.9224 58.5778 64.0916C58.5409 63.1712 58.5276 61.5158 58.5089 58.3784C58.4981 56.5531 58.4972 54.8188 58.5045 53.4955C58.5081 52.8336 58.5138 52.2758 58.5213 51.8612C58.529 51.4315 58.5384 51.188 58.5457 51.1267C58.6301 50.4181 58.9303 49.9838 59.494 49.6905C60.0413 49.4058 60.5914 49.4385 61.1226 49.8016C61.1195 49.7994 61.1199 49.7998 61.1253 49.8041C61.1332 49.8104 61.1515 49.8251 61.1842 49.8525C61.2314 49.892 61.2958 49.9472 61.3774 50.0179C61.5402 50.1591 61.766 50.3577 62.0483 50.608C62.6124 51.1082 63.3981 51.8112 64.3484 52.6657C66.2487 54.3744 68.8048 56.6869 71.5578 59.1906C74.3116 61.6951 76.8265 63.9722 78.66 65.6234C79.5766 66.4488 80.3236 67.1184 80.8451 67.5819C81.1056 67.8134 81.3111 67.9946 81.4538 68.1185C81.5247 68.18 81.5824 68.2294 81.6245 68.2643C81.6448 68.2812 81.6658 68.2982 81.6845 68.3124C81.6928 68.3188 81.7079 68.3301 81.7257 68.3418C81.7337 68.3471 81.7517 68.3587 81.7754 68.3708C81.7872 68.3768 81.8087 68.3874 81.8367 68.3974C81.8569 68.4046 81.9206 68.4267 82.0057 68.4267C82.0908 68.4267 82.1545 68.4046 82.1747 68.3974C82.2028 68.3874 82.2243 68.3768 82.236 68.3708C82.2597 68.3587 82.2777 68.3471 82.2857 68.3418C82.3035 68.3301 82.3186 68.3188 82.3269 68.3124C82.3456 68.2982 82.3666 68.2812 82.3869 68.2643C82.429 68.2294 82.4867 68.18 82.5577 68.1185C82.7003 67.9946 82.9058 67.8134 83.1663 67.5819C83.6879 67.1184 84.4348 66.4488 85.3514 65.6234C87.1849 63.9722 89.6998 61.6951 92.4536 59.1906C95.2066 56.6869 97.7655 54.3726 99.6704 52.6609C100.623 51.8049 101.411 51.1002 101.978 50.598C102.262 50.3468 102.49 50.1472 102.654 50.005C102.736 49.9338 102.801 49.8781 102.849 49.8381C102.884 49.809 102.903 49.7938 102.911 49.7876C102.916 49.784 102.916 49.7835 102.914 49.7852C103.468 49.4074 104.277 49.429 104.745 49.79ZM104.233 78.1482L104.233 78.1482C104.38 78.1808 104.622 78.3177 104.871 78.5545C105.115 78.7864 105.296 79.0481 105.367 79.2507C105.383 79.295 105.409 79.4046 105.432 79.6689C105.453 79.9262 105.47 80.2989 105.481 80.8504C105.503 81.9519 105.504 83.7293 105.492 86.6443L105.464 93.5313L105.24 93.8446C105.241 93.844 105.241 93.8437 105.241 93.8436C105.24 93.8434 105.225 93.862 105.179 93.9094C105.128 93.9617 105.057 94.0326 104.965 94.1222C104.782 94.3009 104.525 94.5457 104.203 94.8481C103.561 95.4524 102.667 96.2807 101.606 97.2578C99.4824 99.2118 96.6903 101.757 93.8974 104.289C91.1045 106.82 88.3118 109.337 86.1873 111.233C85.1249 112.181 84.2307 112.974 83.5875 113.535C83.2656 113.815 83.0085 114.036 82.8254 114.19C82.7334 114.267 82.6631 114.324 82.614 114.363C82.6011 114.373 82.5906 114.381 82.5823 114.387C82.2003 114.538 81.8111 114.538 81.4291 114.387C81.4208 114.381 81.4104 114.373 81.3974 114.363C81.3483 114.324 81.278 114.267 81.186 114.19C81.0029 114.036 80.7458 113.815 80.4239 113.534C79.7807 112.974 78.8865 112.181 77.824 111.233C75.6995 109.337 72.9068 106.82 70.1139 104.289C67.3211 101.757 64.529 99.2116 62.4057 97.2576C61.3439 96.2805 60.4504 95.4522 59.808 94.8479C59.4866 94.5455 59.2296 94.3007 59.0464 94.122C58.9546 94.0325 58.8834 93.9615 58.8328 93.9093C58.7868 93.8619 58.771 93.8432 58.7707 93.8435C58.7706 93.8435 58.7709 93.844 58.7715 93.8447L58.5484 93.5321L58.5484 86.4527C58.5484 86.1089 58.5484 85.7808 58.5483 85.4675C58.5475 82.0716 58.5472 80.4216 58.6435 79.5362C58.6954 79.0587 58.7692 78.8875 58.8297 78.7987C58.8877 78.7135 58.9507 78.6658 59.1197 78.5377C59.1624 78.5053 59.212 78.4678 59.2699 78.4232C59.4508 78.2841 59.5389 78.2385 59.6301 78.2125C59.7372 78.1819 59.8894 78.1668 60.2224 78.1677C60.5442 78.1686 60.7021 78.1848 60.812 78.2152C60.9044 78.2408 60.9882 78.2833 61.141 78.4017C61.1405 78.4013 61.1404 78.4012 61.1408 78.4016C61.142 78.4026 61.1475 78.407 61.1593 78.417C61.1731 78.4287 61.1917 78.4447 61.2154 78.4653C61.2626 78.5063 61.3267 78.5627 61.4073 78.6342C61.5684 78.7769 61.7924 78.9769 62.0725 79.2281C62.6324 79.7303 63.4144 80.4351 64.3615 81.2911C66.2555 83.0028 68.8084 85.3178 71.563 87.8227C74.3184 90.3282 76.8331 92.6062 78.6652 94.2579C79.5811 95.0837 80.327 95.7535 80.8471 96.2171C81.1069 96.4487 81.3115 96.6297 81.4532 96.7534C81.5236 96.8149 81.5806 96.864 81.6217 96.8985C81.6416 96.9152 81.6617 96.9317 81.6792 96.9453C81.687 96.9514 81.701 96.9621 81.7171 96.9731C81.7243 96.978 81.7412 96.9893 81.7633 97.0013C81.774 97.0071 81.795 97.0181 81.8226 97.0287L81.8229 97.0289C81.8404 97.0356 81.9101 97.0626 82.0038 97.0626C82.0931 97.0626 82.1596 97.0382 82.1784 97.0312C82.2062 97.0209 82.2274 97.0102 82.2387 97.0043C82.2616 96.9922 82.279 96.9808 82.2865 96.9758C82.3033 96.9646 82.3175 96.9538 82.3253 96.9478C82.3314 96.9432 82.3377 96.9382 82.3441 96.933C82.3562 96.9233 82.3688 96.913 82.381 96.9028C82.42 96.8703 82.4736 96.8243 82.5394 96.767C82.6719 96.6519 82.8627 96.4833 83.1048 96.268C83.5894 95.8369 84.2839 95.2142 85.1363 94.4465C86.8414 92.9109 89.181 90.7932 91.7436 88.464C92.5713 87.7117 93.3387 87.0139 94.0505 86.3668C98.6138 82.218 100.889 80.1495 102.081 79.1129C102.782 78.503 103.072 78.283 103.218 78.2002C103.25 78.182 103.256 78.1763 103.262 78.1747C103.274 78.1717 103.289 78.1823 103.478 78.1537C103.747 78.113 104.103 78.1193 104.233 78.1482ZM82.6209 114.371L82.6208 114.371L82.6209 114.371ZM105.05 49.3945L105.05 49.3945L105.05 49.3945ZM58.696 65.1371C58.6942 65.135 58.6934 65.1339 58.6934 65.1339C58.6934 65.1339 58.6943 65.1349 58.696 65.1371Z" stroke="white"/>
</svg>
