<svg width="20" height="19" viewBox="0 0 20 19" fill="none" xmlns="http://www.w3.org/2000/svg">
<path d="M14.5 0C17.538 0 20 2.56757 20 6.16216C20 13.3514 12.5 17.4595 10 19C7.5 17.4595 0 13.3514 0 6.16216C0 2.56757 2.5 0 5.5 0C7.36 0 9 1.02703 10 2.05405C11 1.02703 12.64 0 14.5 0ZM10.934 16.0257C11.815 15.4547 12.61 14.8868 13.354 14.2788C16.335 11.8447 18 9.1847 18 6.16216C18 3.73838 16.463 2.05405 14.5 2.05405C13.424 2.05405 12.26 2.63946 11.414 3.50627L10 4.95849L8.586 3.50627C7.74 2.63946 6.576 2.05405 5.5 2.05405C3.56 2.05405 2 3.75481 2 6.16216C2 9.18573 3.666 11.8447 6.645 14.2788C7.39 14.8868 8.185 15.4547 9.066 16.0247C9.365 16.2188 9.661 16.4047 10 16.6122C10.339 16.4047 10.635 16.2188 10.934 16.0257Z" fill="white"/>
</svg>
