<svg width="93" height="32" viewBox="0 0 93 32" fill="none" xmlns="http://www.w3.org/2000/svg">
<path d="M93 0L24.9625 28.4813C19.3204 30.8271 14.5829 32 10.7501 32C6.40314 32 3.25534 30.5066 1.30669 27.5198C0.0775521 25.6043 -0.284446 23.1686 0.220702 20.2127C0.72585 17.2569 2.06217 14.1102 4.22966 10.7728C6.04339 8.06889 9.01207 4.51333 13.1357 0.106091C11.7361 2.27239 10.7098 4.6509 10.0981 7.14574C9.01282 11.6974 9.98714 15.04 13.021 17.1736C14.4675 18.1697 16.4566 18.6678 18.9884 18.6678C21.2985 18.6291 23.5947 18.3069 25.8236 17.7085L93 0Z" fill="white"/>
</svg>
