<svg width="72" height="212" viewBox="0 0 72 212" fill="none" xmlns="http://www.w3.org/2000/svg">
<path d="M25.3505 200.696C21.5679 198.124 16.994 194.487 11.6221 189.769C12.9304 190.204 14.2558 190.589 15.5958 190.922L15.5957 190.922L15.6083 190.925C20.9574 192.217 25.772 192.327 29.9659 191.089C34.1966 189.839 37.644 187.261 40.2837 183.458L40.2893 183.45L40.2948 183.442C42.8414 179.695 44.0025 174.716 44.0025 168.715L44.0025 168.698L44.0022 168.682C43.9126 163.256 43.1657 157.862 41.7787 152.626C41.7783 152.624 41.7779 152.623 41.7775 152.621L9.26169 27.653L62.2326 155.856C62.2329 155.856 62.2333 155.857 62.2336 155.858C67.4638 168.603 70 179.126 70 187.494C70 196.905 66.8464 203.364 60.8231 207.349C57.0556 209.795 52.1296 210.619 45.8199 209.526C39.5172 208.435 32.6978 205.528 25.3505 200.696Z" stroke="black" stroke-width="4"/>
</svg>
